<?xml version="1.0" encoding="utf-8"?>
<!-- Generator: Adobe Illustrator 21.1.0, SVG Export Plug-In . SVG Version: 6.00 Build 0)  -->
<svg version="1.1" id="Слой_1" xmlns="http://www.w3.org/2000/svg" xmlns:xlink="http://www.w3.org/1999/xlink" x="0px" y="0px"
	 viewBox="0 0 1000 275.4" style="enable-background:new 0 0 1000 275.4;" xml:space="preserve">
<style type="text/css">
	.st0{fill-rule:evenodd;clip-rule:evenodd;fill:#1D2B4E;}
</style>
<path class="st0" d="M523.7,137c-0.8,3-1.8,6-3,8.8c-12.8,29.9-42.6,43.8-73.7,45.8c-7.5,0.5-15.1,0-22.4-1.7
	c-6.5-1.5-12.6-4.1-18.2-7.8c-4-2.6-7.4-5.9-10.1-9.8c-11.9,7.8-26.3,15.5-40.2,18.3c-8.5,1.7-18.1,2-25.9-2.4
	c-6.4-3.6-9.8-9.6-10.8-16.9c-2.2-15,5.4-35.8,11.1-49.3c0.7-1.7,1.4-3.4,2-5.2c-1.6,0.5-3.2,1.2-4.7,1.9l-0.6,0.3
	c-5.2,3-17.7,17.6-21.4,21.9c-20.2,22.8-45.2,51.2-78.3,50.8c-7.2-0.1-15.3-1.2-21.4-5.3c-4.1-2.8-6.8-6.5-7.7-11.2
	c-8.8,4.5-17.8,8.5-27.1,12c-18.9,7.1-43.2,13.5-63.5,13.5c-11.8,0-24.6-2.5-33.9-10.3c-3.5-3-6.4-6.6-8.3-10.8
	c-1.8-4-2.7-8.3-2.7-12.7c0-9.9,4.4-19.3,10.7-26.8c16.3-19.4,47.5-33.1,70.2-43.6c13.2-6.1,57.7-24.3,57.1-42
	c0-1.1-0.1-2.2-0.2-3.3c-1.1-7.7-5-13.1-12-16.5c-8.5-4.1-20.1-4.6-29.4-4.3c-6.4,0.2-12.9,0.9-19.3,1.8
	c-20.2,2.8-40.5,8.1-59.8,14.7C59.3,54,38.9,62.9,19.5,73.4L18.4,74L3.6,57.7l1.7-0.9c22-11.9,45-22,68.6-30
	c22.4-7.6,45.8-13.7,69.2-17c7.9-1.1,15.9-1.9,23.9-2.2c14.3-0.5,31,0.6,44.1,6.9c11.9,5.7,19.2,15,21.1,28.2
	c0.2,1.6,0.4,3.2,0.5,4.8c1.2,34-52.4,55.3-77.6,66.9c-15.4,7.2-44.5,19.8-55.3,32.6c-3.1,3.7-5.1,8.4-5.1,13.3
	c0,2.3,0.4,4.7,1.4,6.8c1,2.2,2.4,4,4.2,5.6c4.6,3.8,10.9,5,16.7,5c14.7,0,33-5.2,46.6-10.3c16.1-6.1,31.5-14.2,45.5-24.2
	c4.4-6.1,10.6-13.2,16.7-17.6l0.8-0.6l20.2,12.7l-1.9,1.3c-5,3.6-10.7,12-13.3,17.6c-1,2.3-2.1,5.3-2.1,7.8c0,1.1,0.3,2.4,1.3,3
	c1.5,1,4.5,1.2,6.2,1.2c12.3,0.1,35.1-27.1,42.9-35.8c4.7-5.3,9.4-10.7,14.4-15.7c-7.4,0.7-14.9,1.5-22.3,2.5l-2.1,0.3l4.8-22.5
	l1.1-0.1c15.6-2,31.2-3.5,46.9-4.3c16.9-0.9,33.9-0.9,50.9,0.3l2.5,0.2l-12.6,21c-0.8,2.6-1.9,5.2-2.9,7.8
	c-4.4,10.5-11.4,28.8-9.7,40.4c0.3,1.9,1,4.9,2.8,6c0.7,0.4,2,0.2,2.7,0.1c10.7-2.1,25.2-12.6,33.9-19.4c0.3-4.1,1.2-8.2,2.6-12.1
	c3.3-9.2,9.3-17.3,16.7-23.7c13.8-11.9,31.2-17.6,49.3-17.6h2.4l-10.7,22.7h-1c-6.4,0-12.9,1.7-17.9,6c-3.7,3.2-6.5,7.4-8.2,12
	c-1.7,4.7-2.2,9.9-0.9,14.8c1.3,4.9,4.2,9,8.5,11.8c3.3,2.2,6.9,3.7,10.7,4.6c3.8,0.9,7.8,1.2,11.7,1c15.9-1,30.3-8.6,36.8-23.7
	c1.7-3.9,2.8-8.2,3.1-12.5c0.1-1,0.1-1.9,0.1-2.9c-0.8-0.3-1.5-0.6-2.3-1c-4.1-1.8-8.8-4.2-12.2-7.2c-5.8-5.1-6.3-11.4-1-17.1
	c5.6-6,13.5-8.3,21.4-8.6l0,0l0.9,0c10.7-0.1,19.2,5.3,22.8,15.5c0.1,0.3,0.2,0.5,0.3,0.8c11.1,3,24.9,4.3,35.7-0.5
	c13.4-10.8,30-15.8,47.1-15.8h2.4l-10.7,22.7h-1c-7.7,0-15.2,2.7-20.4,8.6c-2.2,2.5-4,5.4-5.3,8.5c-1.3,3.2-2,6.6-2,10
	c0,6.1,2.2,11.7,6.8,15.7c2.9,2.6,6.3,4.6,10,5.8c8.1,2.8,17.2,2,25.2-0.5c8.1-2.6,16.2-7.3,21.9-13.7c2.4-2.8,4.5-6,5.7-9.5
	c2.9-8.6,3-17.3-0.4-25.8c-3.9-9.6-11.6-17.3-19.9-23.2c-6.2-4.3-12.7-8.3-19.2-12.2c-7.2-4.3-14.7-8.8-21.3-14
	c-14.1-11.1-19.4-23.1-7.3-38.5c8.1-10.3,20.1-14.5,32.7-16c14.7-1.7,31.5,0.9,45.8,4c9.4,2,18.7,4.9,27.8,7.6
	c16.1,4.8,33.9,10.3,50.6,12c1.2-2.3,2.6-4.6,4.2-6.7c8.8-11.5,22-19.8,36.9-18.7c5.2,0.4,10.6,2.2,14,6.3c2.8,3.4,3.8,7.7,3,12
	c-2.2,11.3-14,19.1-23.7,23.3c-4.3,1.9-8.8,3.4-13.4,4.4c-2.9,6.9-5.6,13.9-8.4,20.8c-3.2,8.1-6.5,16.3-9.8,24.4
	c-6.2,15.1-14.2,34-16.8,50c-0.3,1.9-2.4,14.5,1.4,14.5c7.8,0,19.5-8.5,25.4-13.2c10.7-8.6,24-22.5,29.6-35l0,0
	c1.6-3.9,3.2-7.8,4.7-11.8l0.4-0.9l31-1.3l-0.9,2.2c-4.1,10.3-8.4,20.6-12.6,30.9c-3.6,8.8-7.2,17.6-10.8,26.4
	c16,8.6,35.7-0.6,49.5-9.8c-0.2-1.8-0.2-3.6-0.1-5.4c0.3-6.6,2.3-13,5.3-18.8c12.1-23.6,37.7-35.1,63.4-35.3l0.7,0
	c6.2,0.2,12.9,1.6,18.6,4.1c4,1.8,7.9,4.3,10.8,7.7c3.1,3.8,4.6,8.3,4.4,13.1c-0.1,3.6-1.1,7-2.5,10.3l-0.4,0.9l-30.7,0.5l1-2.2
	c0.5-1.1,0.9-2.4,0.9-3.7c0-1.3-0.4-2.5-1.2-3.6c-1-1.2-2.5-2.2-3.9-2.8c-2.3-1-4.9-1.6-7.3-1.7c-10.1,0.2-19.3,5.5-24,14.6
	c-1.8,3.5-2.9,7.3-3.1,11.2c-0.2,3.8,0.4,7.5,2.1,10.9c4.7,9.6,15.4,12.6,25.4,12.7c16.5,0.1,32.9-1.9,49.1-4.9
	c17.3-3.2,34.4-7.6,51.3-12.4l1.7-0.5l3.3,21l-1.3,0.4c-18.5,5.3-37.1,10-56,13.5c-19,3.5-38.1,5.6-57.3,5.6l-0.3,0
	c-14.7-0.1-30.8-3.7-40.9-15.1c-19.3,11.5-45,20.4-66.8,11.2l-0.8,1.9c-6.6,16.4-13.7,32.5-24.9,46.4
	c-16.3,20.4-37.1,31.6-63.5,32.1c-5.9,0.1-12.1-0.6-17.5-3.1c-3.9-1.8-7.1-4.5-9.2-8.3c-1.7-3.1-2.5-6.6-2.5-10.1
	c-0.1-7,2.4-14.6,5.3-20.9l0.4-0.9l30.6-0.1l-1,2.2c-1.8,3.8-3.6,8.8-3.5,13c0,1.2,0.2,2.5,0.8,3.5c0.3,0.6,0.8,1,1.4,1.3
	c1,0.5,2.7,0.5,3.8,0.5c11.9-0.2,21-6.8,28.2-15.8c9.3-11.7,15.5-26.4,21.1-40.1l4.6-11.3c-12.2,7.4-26.6,13.4-40.8,13.4
	c-21.7,0-26.8-14.2-23.7-33.3c2.8-17.4,10.9-37.2,17.7-53.6l0,0l0.2-0.6c3.3-8,6.5-16.1,9.7-24.1c2.5-6.3,5-12.6,7.6-18.9
	c-20.1-1.6-39.9-7.4-59.1-13.1c-8.5-2.5-17.2-5.2-25.8-7.1c-9.8-2.1-23.4-4.7-33.4-3.6c-0.7,0.1-1.7,0.2-1.7-0.2
	c-4.4,5.6,2.5,11.2,6.5,14.4c5.9,4.7,13,8.7,19.5,12.7c6.9,4.1,13.7,8.3,20.3,12.9c10.9,7.6,20.4,17.6,25.4,30
	c4.8,11.9,4.6,24.4,0.4,36.5c-2.3,6.7-6.3,12.8-10.9,18.1c-10.9,12.3-26.7,21.4-42.3,26.4c-15.9,5.1-34.2,6.7-50.2,1.2
	c-6.2-2.1-12-5.3-17-9.7c-7.7-6.9-11.8-16.2-11.8-26.5c0-5.2,1-10.3,2.8-15.1C534.9,137.6,529.3,137.5,523.7,137z"/>
</svg>
